<svg width="444" height="87" viewBox="0 0 444 87" fill="none" xmlns="http://www.w3.org/2000/svg">
<path d="M37.69 0.94472C42.7252 0.94472 46.792 1.71937 49.8906 3.26866C52.9892 4.74048 55.8941 6.48343 58.6054 8.49751C59.6124 9.27216 60.3871 9.65948 60.9293 9.65948C62.4011 9.65948 63.3694 7.29681 63.8342 2.57148H66.5067C66.3518 5.43767 66.2356 8.92357 66.1582 13.0292C66.0807 17.1348 66.042 22.5573 66.042 29.2967H63.3694C62.8272 26.0432 62.1687 22.9059 61.3941 19.8848C60.6194 16.8637 59.3413 14.2686 57.5596 12.0996C55.3131 9.23342 52.3695 7.02568 48.7286 5.4764C45.0878 3.84964 41.3308 3.03626 37.4576 3.03626C33.5843 3.03626 30.0597 4.00457 26.8837 5.94118C23.7851 7.80033 21.1126 10.5116 18.8661 14.075C16.6196 17.6383 14.8767 21.9376 13.6372 26.9728C12.4753 31.9305 11.8943 37.5467 11.8943 43.8213C11.8943 57.7649 14.1408 67.9902 18.6337 74.4972C23.1266 80.9268 30.0984 84.1416 39.5491 84.1416C42.3378 84.1416 44.7392 83.7542 46.7533 82.9796C48.8448 82.1275 50.4716 81.3141 51.6336 80.5395C53.1054 79.5324 54.035 78.6029 54.4223 77.7507C54.8096 76.8212 55.0033 75.6205 55.0033 74.1486V62.9938C55.0033 59.8177 54.6934 57.4551 54.0737 55.9058C53.454 54.3565 52.292 53.3107 50.5878 52.7685C48.961 52.2262 46.5209 51.9163 43.2674 51.8389V49.5149C44.6618 49.5924 46.2885 49.6699 48.1477 49.7473C50.0068 49.7473 51.9434 49.7861 53.9575 49.8635C56.049 49.8635 57.9469 49.8635 59.6511 49.8635C62.2075 49.8635 64.4927 49.8248 66.5067 49.7473C68.5983 49.6699 70.3412 49.5924 71.7356 49.5149V51.8389C70.0314 51.9163 68.7532 52.1875 67.9011 52.6523C67.049 53.117 66.468 54.0466 66.1582 55.441C65.9258 56.8353 65.8096 58.9656 65.8096 61.8318V84.8387H63.4856C63.4082 83.5218 63.0983 82.0888 62.5561 80.5395C62.0913 78.9902 61.3554 78.2155 60.3483 78.2155C59.8835 78.2155 59.4187 78.3317 58.954 78.5641C58.4892 78.7965 57.6758 79.3388 56.5138 80.1909C53.9575 82.1275 51.2462 83.6768 48.3801 84.8387C45.5139 85.9232 42.1829 86.4655 38.3871 86.4655C30.4083 86.4655 23.5527 84.8387 17.8203 81.5852C12.1654 78.2543 7.82741 73.4902 4.80629 67.293C1.78518 61.0959 0.274622 53.698 0.274622 45.0995C0.274622 36.0361 1.90138 28.2122 5.15488 21.6277C8.40839 15.0433 12.8239 9.96934 18.4013 6.40597C24.0562 2.76514 30.4858 0.94472 37.69 0.94472ZM102.077 2.57148V4.89541C99.4437 4.97288 97.4296 5.28273 96.0352 5.82499C94.7183 6.28977 93.8275 7.21935 93.3627 8.61371C92.8979 9.9306 92.6655 12.0221 92.6655 14.8883V72.5219C92.6655 75.3106 92.8979 77.4022 93.3627 78.7965C93.8275 80.1909 94.7183 81.1205 96.0352 81.5852C97.4296 81.9726 99.4437 82.1662 102.077 82.1662H110.56C114.201 82.1662 117.144 81.7789 119.391 81.0043C121.715 80.2296 123.535 79.0289 124.852 77.4022C126.246 75.6979 127.292 73.4515 127.989 70.6627C128.687 67.874 129.229 64.4656 129.616 60.4374H132.289C132.056 62.8388 131.94 66.0149 131.94 69.9656C131.94 71.4374 131.979 73.5677 132.056 76.3564C132.211 79.0676 132.444 81.8951 132.753 84.8387C128.803 84.6838 124.348 84.6064 119.391 84.6064C114.433 84.5289 110.018 84.4902 106.144 84.4902C104.44 84.4902 102.232 84.4902 99.5211 84.4902C96.8873 84.4902 94.0212 84.5289 90.9226 84.6064C87.824 84.6064 84.6867 84.6451 81.5106 84.7225C78.3346 84.7225 75.3135 84.7613 72.4473 84.8387V82.5148C75.0811 82.3599 77.0564 82.05 78.3733 81.5852C79.7677 81.1205 80.6973 80.1909 81.1621 78.7965C81.6268 77.4022 81.8592 75.3106 81.8592 72.5219V14.8883C81.8592 12.0221 81.6268 9.9306 81.1621 8.61371C80.6973 7.21935 79.7677 6.28977 78.3733 5.82499C77.0564 5.28273 75.0811 4.97288 72.4473 4.89541V2.57148C74.0741 2.64894 76.2043 2.72641 78.8381 2.80387C81.4719 2.88133 84.2994 2.92007 87.3205 2.92007C90.0317 2.92007 92.7043 2.88133 95.3381 2.80387C98.0493 2.72641 100.296 2.64894 102.077 2.57148ZM167.367 0.94472C174.726 0.94472 181.156 2.61021 186.656 5.94118C192.233 9.27215 196.533 14.075 199.554 20.3496C202.652 26.5467 204.202 34.0995 204.202 43.0079C204.202 51.684 202.614 59.2755 199.438 65.7825C196.339 72.2895 192.001 77.3634 186.424 81.0043C180.846 84.6451 174.455 86.4655 167.251 86.4655C159.892 86.4655 153.424 84.8 147.846 81.469C142.346 78.1381 138.047 73.3353 134.948 67.0606C131.927 60.786 130.417 53.2332 130.417 44.4023C130.417 35.7263 132.005 28.1348 135.181 21.6277C138.357 15.1207 142.695 10.0468 148.195 6.40597C153.772 2.76514 160.163 0.94472 167.367 0.94472ZM166.903 3.03626C161.867 3.03626 157.491 4.77921 153.772 8.26511C150.054 11.751 147.149 16.5538 145.058 22.6735C143.043 28.7932 142.036 35.8812 142.036 43.9375C142.036 52.1487 143.16 59.3142 145.406 65.4339C147.73 71.4761 150.829 76.1627 154.702 79.4937C158.653 82.7472 162.991 84.374 167.716 84.374C172.751 84.374 177.128 82.631 180.846 79.1451C184.564 75.6592 187.431 70.8564 189.445 64.7367C191.536 58.5396 192.582 51.4516 192.582 43.4727C192.582 35.184 191.42 28.0186 189.096 21.9763C186.85 15.9341 183.79 11.2862 179.917 8.03272C176.043 4.70175 171.705 3.03626 166.903 3.03626ZM306.393 2.57148V4.89541C304.921 5.20527 303.294 6.09611 301.513 7.56794C299.731 8.9623 298.298 11.4412 297.213 15.0045L275.252 85.4197C275.097 85.4197 274.942 85.4197 274.788 85.4197C274.633 85.4197 274.478 85.4197 274.323 85.4197C274.168 85.4197 274.013 85.4197 273.858 85.4197C273.703 85.4197 273.548 85.4197 273.393 85.4197L248.759 12.332C247.752 9.31089 246.629 7.33554 245.39 6.40597C244.15 5.4764 242.988 4.97288 241.904 4.89541V2.57148C243.298 2.64894 245.041 2.72641 247.133 2.80387C249.224 2.88133 251.238 2.92007 253.175 2.92007C256.196 2.92007 259.023 2.88133 261.657 2.80387C264.291 2.72641 266.421 2.64894 268.048 2.57148V4.89541C265.724 4.97288 263.865 5.20527 262.471 5.59259C261.154 5.97991 260.379 6.83202 260.147 8.14892C259.992 9.46582 260.379 11.6348 261.309 14.6559L278.622 68.2226L276.995 69.617L292.333 21.3953C293.728 17.1348 294.347 13.8426 294.192 11.5186C294.115 9.11722 293.263 7.45174 291.636 6.52217C290.009 5.51513 287.569 4.97288 284.316 4.89541V2.57148C286.562 2.64894 288.847 2.72641 291.171 2.80387C293.495 2.88133 295.664 2.92007 297.678 2.92007C299.692 2.92007 301.358 2.88133 302.675 2.80387C303.992 2.72641 305.231 2.64894 306.393 2.57148ZM225.172 2.57148V4.89541C223.157 5.05034 221.686 5.43766 220.756 6.05738C219.904 6.67709 219.478 7.68413 219.478 9.07849C219.555 10.3954 219.981 12.2545 220.756 14.6559L238.767 69.617L235.862 72.5219L252.129 20.582L253.872 23.3707L234.7 85.4197C234.545 85.4197 234.39 85.4197 234.235 85.4197C234.08 85.4197 233.925 85.4197 233.77 85.4197C233.615 85.4197 233.46 85.4197 233.305 85.4197C233.15 85.4197 232.995 85.4197 232.841 85.4197L208.207 12.332C207.2 9.31089 205.922 7.33554 204.372 6.40597C202.823 5.4764 201.429 4.97288 200.189 4.89541V2.57148C201.739 2.64894 203.636 2.72641 205.883 2.80387C208.207 2.88133 210.453 2.92007 212.622 2.92007C215.179 2.92007 217.541 2.88133 219.71 2.80387C221.957 2.72641 223.777 2.64894 225.172 2.57148ZM305.263 2.57148C306.89 2.64894 309.02 2.72641 311.654 2.80387C314.287 2.88133 316.883 2.92007 319.439 2.92007C323.08 2.92007 326.566 2.88133 329.897 2.80387C333.228 2.72641 335.59 2.68768 336.985 2.68768C343.259 2.68768 348.449 3.57852 352.555 5.3602C356.738 7.14188 359.837 9.58201 361.851 12.6806C363.942 15.7017 364.988 19.1101 364.988 22.9059C364.988 25.2298 364.523 27.7087 363.594 30.3425C362.664 32.9763 361.037 35.4551 358.713 37.7791C356.467 40.103 353.368 42.0396 349.418 43.5889C345.467 45.0607 340.47 45.7967 334.428 45.7967H323.273V43.4727H333.266C338.766 43.4727 342.949 42.6206 345.815 40.9164C348.759 39.1347 350.734 36.8108 351.742 33.9446C352.826 31.0009 353.368 27.7474 353.368 24.1841C353.368 18.0644 351.896 13.339 348.953 10.0081C346.087 6.59963 341.129 4.89541 334.08 4.89541C330.516 4.89541 328.192 5.55386 327.108 6.87076C326.023 8.18765 325.481 10.8602 325.481 14.8883V72.5219C325.481 75.3106 325.713 77.4022 326.178 78.7965C326.643 80.1909 327.534 81.1205 328.851 81.5852C330.245 82.05 332.259 82.3599 334.893 82.5148V84.8387C333.111 84.6838 330.865 84.6064 328.154 84.6064C325.52 84.5289 322.847 84.4902 320.136 84.4902C317.115 84.4902 314.287 84.5289 311.654 84.6064C309.02 84.6064 306.89 84.6838 305.263 84.8387V82.5148C307.897 82.3599 309.872 82.05 311.189 81.5852C312.583 81.1205 313.513 80.1909 313.978 78.7965C314.442 77.4022 314.675 75.3106 314.675 72.5219V14.8883C314.675 12.0221 314.442 9.9306 313.978 8.61371C313.513 7.21935 312.583 6.28977 311.189 5.82499C309.872 5.28273 307.897 4.97288 305.263 4.89541V2.57148ZM323.738 43.8213C327.921 43.9762 331.213 44.1699 333.615 44.4023C336.016 44.5572 337.953 44.7121 339.425 44.8671C340.974 45.022 342.446 45.2157 343.84 45.4481C349.03 46.3002 352.749 47.8882 354.995 50.2121C357.319 52.4586 359.023 55.9832 360.108 60.786L363.013 72.6381C363.787 76.0465 364.562 78.5254 365.337 80.0747C366.189 81.5465 367.467 82.2437 369.171 82.1662C370.488 82.0888 371.572 81.6627 372.425 80.8881C373.354 80.1134 374.322 79.0676 375.329 77.7507L377.072 79.0289C375.446 81.4303 373.741 83.2895 371.96 84.6064C370.256 85.8458 367.815 86.4655 364.639 86.4655C361.773 86.4655 359.256 85.6134 357.087 83.9092C354.918 82.205 353.291 78.874 352.206 73.9163L349.65 62.2966C348.953 58.9656 348.139 56.0994 347.21 53.698C346.358 51.2192 345.118 49.2826 343.492 47.8882C341.942 46.4938 339.618 45.7967 336.52 45.7967H323.97L323.738 43.8213ZM407.451 1.99049L435.803 75.0782C436.965 78.0219 438.281 79.9972 439.753 81.0043C441.225 81.9338 442.581 82.4373 443.82 82.5148V84.8387C442.271 84.6838 440.373 84.6064 438.127 84.6064C435.88 84.5289 433.634 84.4902 431.387 84.4902C428.366 84.4902 425.539 84.5289 422.905 84.6064C420.271 84.6064 418.141 84.6838 416.514 84.8387V82.5148C420.465 82.3599 422.982 81.7014 424.067 80.5395C425.151 79.3 424.919 76.705 423.37 72.7543L401.757 15.0045L403.616 13.494L383.398 66.0149C382.158 69.1135 381.423 71.7472 381.19 73.9163C380.958 76.0078 381.151 77.6733 381.771 78.9127C382.468 80.1521 383.592 81.043 385.141 81.5852C386.768 82.1275 388.782 82.4373 391.183 82.5148V84.8387C389.014 84.6838 386.729 84.6064 384.327 84.6064C382.003 84.5289 379.834 84.4902 377.82 84.4902C375.884 84.4902 374.218 84.5289 372.824 84.6064C371.507 84.6064 370.268 84.6838 369.106 84.8387V82.5148C370.655 82.1275 372.243 81.2366 373.87 79.8423C375.496 78.3705 376.968 75.8916 378.285 72.4057L405.591 1.99049C405.901 1.99049 406.211 1.99049 406.521 1.99049C406.831 1.99049 407.141 1.99049 407.451 1.99049ZM421.627 51.3741V53.698H387L388.162 51.3741H421.627Z" fill="black"/>
<path d="M37.69 0.94472C42.7252 0.94472 46.792 1.71937 49.8906 3.26866C52.9892 4.74048 55.8941 6.48343 58.6054 8.49751C59.6124 9.27216 60.3871 9.65948 60.9293 9.65948C62.4011 9.65948 63.3694 7.29681 63.8342 2.57148H66.5067C66.3518 5.43767 66.2356 8.92357 66.1582 13.0292C66.0807 17.1348 66.042 22.5573 66.042 29.2967H63.3694C62.8272 26.0432 62.1687 22.9059 61.3941 19.8848C60.6194 16.8637 59.3413 14.2686 57.5596 12.0996C55.3131 9.23342 52.3695 7.02568 48.7286 5.4764C45.0878 3.84964 41.3308 3.03626 37.4576 3.03626C33.5843 3.03626 30.0597 4.00457 26.8837 5.94118C23.7851 7.80033 21.1126 10.5116 18.8661 14.075C16.6196 17.6383 14.8767 21.9376 13.6372 26.9728C12.4753 31.9305 11.8943 37.5467 11.8943 43.8213C11.8943 57.7649 14.1408 67.9902 18.6337 74.4972C23.1266 80.9268 30.0984 84.1416 39.5491 84.1416C42.3378 84.1416 44.7392 83.7542 46.7533 82.9796C48.8448 82.1275 50.4716 81.3141 51.6336 80.5395C53.1054 79.5324 54.035 78.6029 54.4223 77.7507C54.8096 76.8212 55.0033 75.6205 55.0033 74.1486V62.9938C55.0033 59.8177 54.6934 57.4551 54.0737 55.9058C53.454 54.3565 52.292 53.3107 50.5878 52.7685C48.961 52.2262 46.5209 51.9163 43.2674 51.8389V49.5149C44.6618 49.5924 46.2885 49.6699 48.1477 49.7473C50.0068 49.7473 51.9434 49.7861 53.9575 49.8635C56.049 49.8635 57.9469 49.8635 59.6511 49.8635C62.2075 49.8635 64.4927 49.8248 66.5067 49.7473C68.5983 49.6699 70.3412 49.5924 71.7356 49.5149V51.8389C70.0314 51.9163 68.7532 52.1875 67.9011 52.6523C67.049 53.117 66.468 54.0466 66.1582 55.441C65.9258 56.8353 65.8096 58.9656 65.8096 61.8318V84.8387H63.4856C63.4082 83.5218 63.0983 82.0888 62.5561 80.5395C62.0913 78.9902 61.3554 78.2155 60.3483 78.2155C59.8835 78.2155 59.4187 78.3317 58.954 78.5641C58.4892 78.7965 57.6758 79.3388 56.5138 80.1909C53.9575 82.1275 51.2462 83.6768 48.3801 84.8387C45.5139 85.9232 42.1829 86.4655 38.3871 86.4655C30.4083 86.4655 23.5527 84.8387 17.8203 81.5852C12.1654 78.2543 7.82741 73.4902 4.80629 67.293C1.78518 61.0959 0.274622 53.698 0.274622 45.0995C0.274622 36.0361 1.90138 28.2122 5.15488 21.6277C8.40839 15.0433 12.8239 9.96934 18.4013 6.40597C24.0562 2.76514 30.4858 0.94472 37.69 0.94472ZM102.077 2.57148V4.89541C99.4437 4.97288 97.4296 5.28273 96.0352 5.82499C94.7183 6.28977 93.8275 7.21935 93.3627 8.61371C92.8979 9.9306 92.6655 12.0221 92.6655 14.8883V72.5219C92.6655 75.3106 92.8979 77.4022 93.3627 78.7965C93.8275 80.1909 94.7183 81.1205 96.0352 81.5852C97.4296 81.9726 99.4437 82.1662 102.077 82.1662H110.56C114.201 82.1662 117.144 81.7789 119.391 81.0043C121.715 80.2296 123.535 79.0289 124.852 77.4022C126.246 75.6979 127.292 73.4515 127.989 70.6627C128.687 67.874 129.229 64.4656 129.616 60.4374H132.289C132.056 62.8388 131.94 66.0149 131.94 69.9656C131.94 71.4374 131.979 73.5677 132.056 76.3564C132.211 79.0676 132.444 81.8951 132.753 84.8387C128.803 84.6838 124.348 84.6064 119.391 84.6064C114.433 84.5289 110.018 84.4902 106.144 84.4902C104.44 84.4902 102.232 84.4902 99.5211 84.4902C96.8873 84.4902 94.0212 84.5289 90.9226 84.6064C87.824 84.6064 84.6867 84.6451 81.5106 84.7225C78.3346 84.7225 75.3135 84.7613 72.4473 84.8387V82.5148C75.0811 82.3599 77.0564 82.05 78.3733 81.5852C79.7677 81.1205 80.6973 80.1909 81.1621 78.7965C81.6268 77.4022 81.8592 75.3106 81.8592 72.5219V14.8883C81.8592 12.0221 81.6268 9.9306 81.1621 8.61371C80.6973 7.21935 79.7677 6.28977 78.3733 5.82499C77.0564 5.28273 75.0811 4.97288 72.4473 4.89541V2.57148C74.0741 2.64894 76.2043 2.72641 78.8381 2.80387C81.4719 2.88133 84.2994 2.92007 87.3205 2.92007C90.0317 2.92007 92.7043 2.88133 95.3381 2.80387C98.0493 2.72641 100.296 2.64894 102.077 2.57148ZM167.367 0.94472C174.726 0.94472 181.156 2.61021 186.656 5.94118C192.233 9.27215 196.533 14.075 199.554 20.3496C202.652 26.5467 204.202 34.0995 204.202 43.0079C204.202 51.684 202.614 59.2755 199.438 65.7825C196.339 72.2895 192.001 77.3634 186.424 81.0043C180.846 84.6451 174.455 86.4655 167.251 86.4655C159.892 86.4655 153.424 84.8 147.846 81.469C142.346 78.1381 138.047 73.3353 134.948 67.0606C131.927 60.786 130.417 53.2332 130.417 44.4023C130.417 35.7263 132.005 28.1348 135.181 21.6277C138.357 15.1207 142.695 10.0468 148.195 6.40597C153.772 2.76514 160.163 0.94472 167.367 0.94472ZM166.903 3.03626C161.867 3.03626 157.491 4.77921 153.772 8.26511C150.054 11.751 147.149 16.5538 145.058 22.6735C143.043 28.7932 142.036 35.8812 142.036 43.9375C142.036 52.1487 143.16 59.3142 145.406 65.4339C147.73 71.4761 150.829 76.1627 154.702 79.4937C158.653 82.7472 162.991 84.374 167.716 84.374C172.751 84.374 177.128 82.631 180.846 79.1451C184.564 75.6592 187.431 70.8564 189.445 64.7367C191.536 58.5396 192.582 51.4516 192.582 43.4727C192.582 35.184 191.42 28.0186 189.096 21.9763C186.85 15.9341 183.79 11.2862 179.917 8.03272C176.043 4.70175 171.705 3.03626 166.903 3.03626ZM306.393 2.57148V4.89541C304.921 5.20527 303.294 6.09611 301.513 7.56794C299.731 8.9623 298.298 11.4412 297.213 15.0045L275.252 85.4197C275.097 85.4197 274.942 85.4197 274.788 85.4197C274.633 85.4197 274.478 85.4197 274.323 85.4197C274.168 85.4197 274.013 85.4197 273.858 85.4197C273.703 85.4197 273.548 85.4197 273.393 85.4197L248.759 12.332C247.752 9.31089 246.629 7.33554 245.39 6.40597C244.15 5.4764 242.988 4.97288 241.904 4.89541V2.57148C243.298 2.64894 245.041 2.72641 247.133 2.80387C249.224 2.88133 251.238 2.92007 253.175 2.92007C256.196 2.92007 259.023 2.88133 261.657 2.80387C264.291 2.72641 266.421 2.64894 268.048 2.57148V4.89541C265.724 4.97288 263.865 5.20527 262.471 5.59259C261.154 5.97991 260.379 6.83202 260.147 8.14892C259.992 9.46582 260.379 11.6348 261.309 14.6559L278.622 68.2226L276.995 69.617L292.333 21.3953C293.728 17.1348 294.347 13.8426 294.192 11.5186C294.115 9.11722 293.263 7.45174 291.636 6.52217C290.009 5.51513 287.569 4.97288 284.316 4.89541V2.57148C286.562 2.64894 288.847 2.72641 291.171 2.80387C293.495 2.88133 295.664 2.92007 297.678 2.92007C299.692 2.92007 301.358 2.88133 302.675 2.80387C303.992 2.72641 305.231 2.64894 306.393 2.57148ZM225.172 2.57148V4.89541C223.157 5.05034 221.686 5.43766 220.756 6.05738C219.904 6.67709 219.478 7.68413 219.478 9.07849C219.555 10.3954 219.981 12.2545 220.756 14.6559L238.767 69.617L235.862 72.5219L252.129 20.582L253.872 23.3707L234.7 85.4197C234.545 85.4197 234.39 85.4197 234.235 85.4197C234.08 85.4197 233.925 85.4197 233.77 85.4197C233.615 85.4197 233.46 85.4197 233.305 85.4197C233.15 85.4197 232.995 85.4197 232.841 85.4197L208.207 12.332C207.2 9.31089 205.922 7.33554 204.372 6.40597C202.823 5.4764 201.429 4.97288 200.189 4.89541V2.57148C201.739 2.64894 203.636 2.72641 205.883 2.80387C208.207 2.88133 210.453 2.92007 212.622 2.92007C215.179 2.92007 217.541 2.88133 219.71 2.80387C221.957 2.72641 223.777 2.64894 225.172 2.57148ZM305.263 2.57148C306.89 2.64894 309.02 2.72641 311.654 2.80387C314.287 2.88133 316.883 2.92007 319.439 2.92007C323.08 2.92007 326.566 2.88133 329.897 2.80387C333.228 2.72641 335.59 2.68768 336.985 2.68768C343.259 2.68768 348.449 3.57852 352.555 5.3602C356.738 7.14188 359.837 9.58201 361.851 12.6806C363.942 15.7017 364.988 19.1101 364.988 22.9059C364.988 25.2298 364.523 27.7087 363.594 30.3425C362.664 32.9763 361.037 35.4551 358.713 37.7791C356.467 40.103 353.368 42.0396 349.418 43.5889C345.467 45.0607 340.47 45.7967 334.428 45.7967H323.273V43.4727H333.266C338.766 43.4727 342.949 42.6206 345.815 40.9164C348.759 39.1347 350.734 36.8108 351.742 33.9446C352.826 31.0009 353.368 27.7474 353.368 24.1841C353.368 18.0644 351.896 13.339 348.953 10.0081C346.087 6.59963 341.129 4.89541 334.08 4.89541C330.516 4.89541 328.192 5.55386 327.108 6.87076C326.023 8.18765 325.481 10.8602 325.481 14.8883V72.5219C325.481 75.3106 325.713 77.4022 326.178 78.7965C326.643 80.1909 327.534 81.1205 328.851 81.5852C330.245 82.05 332.259 82.3599 334.893 82.5148V84.8387C333.111 84.6838 330.865 84.6064 328.154 84.6064C325.52 84.5289 322.847 84.4902 320.136 84.4902C317.115 84.4902 314.287 84.5289 311.654 84.6064C309.02 84.6064 306.89 84.6838 305.263 84.8387V82.5148C307.897 82.3599 309.872 82.05 311.189 81.5852C312.583 81.1205 313.513 80.1909 313.978 78.7965C314.442 77.4022 314.675 75.3106 314.675 72.5219V14.8883C314.675 12.0221 314.442 9.9306 313.978 8.61371C313.513 7.21935 312.583 6.28977 311.189 5.82499C309.872 5.28273 307.897 4.97288 305.263 4.89541V2.57148ZM323.738 43.8213C327.921 43.9762 331.213 44.1699 333.615 44.4023C336.016 44.5572 337.953 44.7121 339.425 44.8671C340.974 45.022 342.446 45.2157 343.84 45.4481C349.03 46.3002 352.749 47.8882 354.995 50.2121C357.319 52.4586 359.023 55.9832 360.108 60.786L363.013 72.6381C363.787 76.0465 364.562 78.5254 365.337 80.0747C366.189 81.5465 367.467 82.2437 369.171 82.1662C370.488 82.0888 371.572 81.6627 372.425 80.8881C373.354 80.1134 374.322 79.0676 375.329 77.7507L377.072 79.0289C375.446 81.4303 373.741 83.2895 371.96 84.6064C370.256 85.8458 367.815 86.4655 364.639 86.4655C361.773 86.4655 359.256 85.6134 357.087 83.9092C354.918 82.205 353.291 78.874 352.206 73.9163L349.65 62.2966C348.953 58.9656 348.139 56.0994 347.21 53.698C346.358 51.2192 345.118 49.2826 343.492 47.8882C341.942 46.4938 339.618 45.7967 336.52 45.7967H323.97L323.738 43.8213ZM407.451 1.99049L435.803 75.0782C436.965 78.0219 438.281 79.9972 439.753 81.0043C441.225 81.9338 442.581 82.4373 443.82 82.5148V84.8387C442.271 84.6838 440.373 84.6064 438.127 84.6064C435.88 84.5289 433.634 84.4902 431.387 84.4902C428.366 84.4902 425.539 84.5289 422.905 84.6064C420.271 84.6064 418.141 84.6838 416.514 84.8387V82.5148C420.465 82.3599 422.982 81.7014 424.067 80.5395C425.151 79.3 424.919 76.705 423.37 72.7543L401.757 15.0045L403.616 13.494L383.398 66.0149C382.158 69.1135 381.423 71.7472 381.19 73.9163C380.958 76.0078 381.151 77.6733 381.771 78.9127C382.468 80.1521 383.592 81.043 385.141 81.5852C386.768 82.1275 388.782 82.4373 391.183 82.5148V84.8387C389.014 84.6838 386.729 84.6064 384.327 84.6064C382.003 84.5289 379.834 84.4902 377.82 84.4902C375.884 84.4902 374.218 84.5289 372.824 84.6064C371.507 84.6064 370.268 84.6838 369.106 84.8387V82.5148C370.655 82.1275 372.243 81.2366 373.87 79.8423C375.496 78.3705 376.968 75.8916 378.285 72.4057L405.591 1.99049C405.901 1.99049 406.211 1.99049 406.521 1.99049C406.831 1.99049 407.141 1.99049 407.451 1.99049ZM421.627 51.3741V53.698H387L388.162 51.3741H421.627Z" fill="black"/>
</svg>
