<svg width="140" height="48" viewBox="0 0 140 48" fill="none" xmlns="http://www.w3.org/2000/svg">
<path d="M13.5924 12.8996C15.1589 12.8996 16.4242 13.1406 17.3882 13.6226C18.3522 14.0805 19.2559 14.6228 20.0994 15.2494C20.4127 15.4904 20.6537 15.6109 20.8224 15.6109C21.2803 15.6109 21.5816 14.8758 21.7262 13.4057H22.5577C22.5095 14.2974 22.4733 15.3819 22.4492 16.6592C22.4251 17.9366 22.4131 19.6236 22.4131 21.7203H21.5816C21.4129 20.7081 21.208 19.732 20.967 18.7921C20.726 17.8522 20.3284 17.0448 19.7741 16.37C19.0752 15.4783 18.1594 14.7915 17.0267 14.3095C15.894 13.8034 14.7251 13.5503 13.5201 13.5503C12.3151 13.5503 11.2186 13.8516 10.2305 14.4541C9.26647 15.0325 8.43502 15.876 7.73612 16.9846C7.03722 18.0932 6.49496 19.4308 6.10936 20.9973C5.74786 22.5397 5.56711 24.2869 5.56711 26.239C5.56711 30.577 6.26601 33.7582 7.66382 35.7826C9.06162 37.7829 11.2306 38.7831 14.1708 38.7831C15.0384 38.7831 15.7855 38.6626 16.4121 38.4216C17.0628 38.1565 17.5689 37.9034 17.9304 37.6624C18.3883 37.3491 18.6775 37.0599 18.798 36.7948C18.9185 36.5056 18.9788 36.1321 18.9788 35.6742V32.2038C18.9788 31.2157 18.8824 30.4806 18.6896 29.9986C18.4968 29.5166 18.1353 29.1913 17.6051 29.0226C17.099 28.8539 16.3398 28.7575 15.3276 28.7334V28.0104C15.7614 28.0345 16.2675 28.0586 16.8459 28.0827C17.4243 28.0827 18.0268 28.0947 18.6534 28.1188C19.3041 28.1188 19.8946 28.1188 20.4248 28.1188C21.2201 28.1188 21.9311 28.1068 22.5577 28.0827C23.2084 28.0586 23.7506 28.0345 24.1844 28.0104V28.7334C23.6542 28.7575 23.2566 28.8418 22.9915 28.9864C22.7264 29.131 22.5456 29.4202 22.4492 29.854C22.3769 30.2878 22.3408 30.9506 22.3408 31.8423V39H21.6178C21.5936 38.5903 21.4972 38.1444 21.3285 37.6624C21.1839 37.1804 20.955 36.9394 20.6417 36.9394C20.4971 36.9394 20.3525 36.9756 20.2079 37.0479C20.0633 37.1202 19.8102 37.2889 19.4487 37.554C18.6534 38.1565 17.8099 38.6385 16.9182 39C16.0265 39.3374 14.9902 39.5061 13.8093 39.5061C11.327 39.5061 9.19417 39 7.41077 37.9878C5.65146 36.9515 4.30186 35.4693 3.36196 33.5413C2.42206 31.6133 1.9521 29.3118 1.9521 26.6367C1.9521 23.817 2.45821 21.3829 3.47041 19.3344C4.48261 17.2859 5.85631 15.7073 7.59152 14.5987C9.35082 13.466 11.3511 12.8996 13.5924 12.8996ZM33.6241 13.4057V14.1287C32.8047 14.1528 32.1781 14.2492 31.7443 14.4179C31.3346 14.5625 31.0574 14.8517 30.9128 15.2855C30.7682 15.6952 30.6959 16.3459 30.6959 17.2376V35.1681C30.6959 36.0357 30.7682 36.6864 30.9128 37.1202C31.0574 37.554 31.3346 37.8432 31.7443 37.9878C32.1781 38.1083 32.8047 38.1685 33.6241 38.1685H36.2631C37.3958 38.1685 38.3116 38.048 39.0105 37.807C39.7335 37.566 40.2998 37.1925 40.7095 36.6864C41.1433 36.1562 41.4687 35.4573 41.6856 34.5897C41.9025 33.7221 42.0712 32.6617 42.1917 31.4085H43.0231C42.9508 32.1556 42.9147 33.1437 42.9147 34.3728C42.9147 34.8307 42.9267 35.4934 42.9508 36.361C42.999 37.2045 43.0713 38.0842 43.1677 39C41.9386 38.9518 40.5529 38.9277 39.0105 38.9277C37.4681 38.9036 36.0944 38.8915 34.8893 38.8915C34.3591 38.8915 33.6723 38.8915 32.8288 38.8915C32.0094 38.8915 31.1177 38.9036 30.1537 38.9277C29.1897 38.9277 28.2136 38.9397 27.2255 38.9638C26.2374 38.9638 25.2975 38.9759 24.4058 39V38.277C25.2252 38.2288 25.8398 38.1324 26.2495 37.9878C26.6833 37.8432 26.9725 37.554 27.1171 37.1202C27.2617 36.6864 27.334 36.0357 27.334 35.1681V17.2376C27.334 16.3459 27.2617 15.6952 27.1171 15.2855C26.9725 14.8517 26.6833 14.5625 26.2495 14.4179C25.8398 14.2492 25.2252 14.1528 24.4058 14.1287V13.4057C24.9119 13.4298 25.5747 13.4539 26.3941 13.478C27.2135 13.5021 28.0931 13.5142 29.033 13.5142C29.8765 13.5142 30.708 13.5021 31.5274 13.478C32.3709 13.4539 33.0698 13.4298 33.6241 13.4057ZM53.9365 12.8996C56.226 12.8996 58.2263 13.4178 59.9374 14.4541C61.6726 15.4904 63.0102 16.9846 63.9501 18.9367C64.9141 20.8647 65.3961 23.2145 65.3961 25.986C65.3961 28.6852 64.902 31.047 63.9139 33.0714C62.9499 35.0958 61.6003 36.6743 59.8651 37.807C58.1299 38.9397 56.1416 39.5061 53.9003 39.5061C51.6108 39.5061 49.5985 38.9879 47.8633 37.9516C46.1522 36.9153 44.8146 35.4211 43.8506 33.469C42.9107 31.5169 42.4408 29.1672 42.4408 26.4198C42.4408 23.7206 42.9348 21.3588 43.9229 19.3344C44.911 17.31 46.2606 15.7314 47.9717 14.5987C49.7069 13.466 51.6952 12.8996 53.9365 12.8996ZM53.7919 13.5503C52.2254 13.5503 50.8637 14.0926 49.7069 15.1771C48.5501 16.2616 47.6464 17.7558 46.9957 19.6597C46.3691 21.5636 46.0558 23.7688 46.0558 26.2752C46.0558 28.8298 46.4052 31.059 47.1041 32.9629C47.8271 34.8427 48.7911 36.3008 49.9961 37.3371C51.2252 38.3493 52.5748 38.8554 54.0449 38.8554C55.6114 38.8554 56.9731 38.3131 58.1299 37.2286C59.2867 36.1441 60.1784 34.6499 60.805 32.746C61.4557 30.818 61.7811 28.6129 61.7811 26.1306C61.7811 23.5519 61.4196 21.3226 60.6966 19.4428C59.9977 17.563 59.0457 16.117 57.8407 15.1048C56.6357 14.0685 55.2861 13.5503 53.7919 13.5503ZM97.1889 13.4057V14.1287C96.731 14.2251 96.2249 14.5023 95.6706 14.9602C95.1163 15.394 94.6705 16.1652 94.3331 17.2738L87.5007 39.1808C87.4525 39.1808 87.4043 39.1808 87.3561 39.1808C87.3079 39.1808 87.2597 39.1808 87.2115 39.1808C87.1633 39.1808 87.1151 39.1808 87.0669 39.1808C87.0187 39.1808 86.9705 39.1808 86.9223 39.1808L79.2585 16.4423C78.9452 15.5024 78.5957 14.8879 78.2101 14.5987C77.8245 14.3095 77.463 14.1528 77.1256 14.1287V13.4057C77.5594 13.4298 78.1017 13.4539 78.7524 13.478C79.4031 13.5021 80.0297 13.5142 80.6322 13.5142C81.5721 13.5142 82.4518 13.5021 83.2712 13.478C84.0906 13.4539 84.7533 13.4298 85.2594 13.4057V14.1287C84.5364 14.1528 83.958 14.2251 83.5242 14.3456C83.1145 14.4661 82.8735 14.7312 82.8012 15.1409C82.753 15.5506 82.8735 16.2254 83.1627 17.1653L88.5491 33.8305L88.043 34.2643L92.8148 19.2621C93.2486 17.9366 93.4414 16.9123 93.3932 16.1893C93.3691 15.4422 93.104 14.924 92.5979 14.6348C92.0918 14.3215 91.3326 14.1528 90.3204 14.1287V13.4057C91.0193 13.4298 91.7303 13.4539 92.4533 13.478C93.1763 13.5021 93.8511 13.5142 94.4777 13.5142C95.1043 13.5142 95.6224 13.5021 96.0321 13.478C96.4418 13.4539 96.8274 13.4298 97.1889 13.4057ZM71.92 13.4057V14.1287C71.2934 14.1769 70.8355 14.2974 70.5463 14.4902C70.2812 14.683 70.1487 14.9963 70.1487 15.4301C70.1728 15.8398 70.3053 16.4182 70.5463 17.1653L76.1496 34.2643L75.2458 35.1681L80.3068 19.009L80.8491 19.8766L74.8843 39.1808C74.8361 39.1808 74.7879 39.1808 74.7397 39.1808C74.6915 39.1808 74.6433 39.1808 74.5951 39.1808C74.5469 39.1808 74.4987 39.1808 74.4505 39.1808C74.4023 39.1808 74.3541 39.1808 74.3059 39.1808L66.6421 16.4423C66.3288 15.5024 65.9312 14.8879 65.4492 14.5987C64.9672 14.3095 64.5334 14.1528 64.1478 14.1287V13.4057C64.6298 13.4298 65.2202 13.4539 65.9191 13.478C66.6421 13.5021 67.341 13.5142 68.0158 13.5142C68.8111 13.5142 69.5462 13.5021 70.221 13.478C70.9199 13.4539 71.4862 13.4298 71.92 13.4057ZM96.8373 13.4057C97.3434 13.4298 98.0062 13.4539 98.8256 13.478C99.645 13.5021 100.452 13.5142 101.248 13.5142C102.38 13.5142 103.465 13.5021 104.501 13.478C105.537 13.4539 106.272 13.4419 106.706 13.4419C108.658 13.4419 110.273 13.719 111.55 14.2733C112.852 14.8276 113.816 15.5868 114.442 16.5508C115.093 17.4907 115.418 18.5511 115.418 19.732C115.418 20.455 115.274 21.2262 114.985 22.0456C114.695 22.865 114.189 23.6362 113.466 24.3592C112.767 25.0822 111.803 25.6847 110.574 26.1667C109.345 26.6246 107.791 26.8536 105.911 26.8536H102.441V26.1306H105.549C107.261 26.1306 108.562 25.8655 109.454 25.3353C110.369 24.781 110.984 24.058 111.297 23.1663C111.635 22.2505 111.803 21.2383 111.803 20.1297C111.803 18.2258 111.346 16.7556 110.43 15.7193C109.538 14.6589 107.996 14.1287 105.803 14.1287C104.694 14.1287 103.971 14.3336 103.634 14.7433C103.296 15.153 103.127 15.9844 103.127 17.2376V35.1681C103.127 36.0357 103.2 36.6864 103.344 37.1202C103.489 37.554 103.766 37.8432 104.176 37.9878C104.61 38.1324 105.236 38.2288 106.056 38.277V39C105.501 38.9518 104.802 38.9277 103.959 38.9277C103.139 38.9036 102.308 38.8915 101.465 38.8915C100.525 38.8915 99.645 38.9036 98.8256 38.9277C98.0062 38.9277 97.3434 38.9518 96.8373 39V38.277C97.6567 38.2288 98.2713 38.1324 98.681 37.9878C99.1148 37.8432 99.404 37.554 99.5486 37.1202C99.6932 36.6864 99.7655 36.0357 99.7655 35.1681V17.2376C99.7655 16.3459 99.6932 15.6952 99.5486 15.2855C99.404 14.8517 99.1148 14.5625 98.681 14.4179C98.2713 14.2492 97.6567 14.1528 96.8373 14.1287V13.4057ZM102.585 26.239C103.887 26.2872 104.911 26.3475 105.658 26.4198C106.405 26.468 107.008 26.5162 107.465 26.5644C107.947 26.6126 108.405 26.6728 108.839 26.7451C110.454 27.0102 111.611 27.5043 112.31 28.2273C113.033 28.9262 113.563 30.0227 113.9 31.5169L114.804 35.2042C115.045 36.2646 115.286 37.0358 115.527 37.5178C115.792 37.9757 116.19 38.1926 116.72 38.1685C117.13 38.1444 117.467 38.0119 117.732 37.7709C118.021 37.5299 118.323 37.2045 118.636 36.7948L119.178 37.1925C118.672 37.9396 118.142 38.518 117.587 38.9277C117.057 39.3133 116.298 39.5061 115.31 39.5061C114.418 39.5061 113.635 39.241 112.96 38.7108C112.285 38.1806 111.779 37.1443 111.442 35.6019L110.647 31.9869C110.43 30.9506 110.177 30.0589 109.887 29.3118C109.622 28.5406 109.237 27.9381 108.731 27.5043C108.249 27.0705 107.526 26.8536 106.562 26.8536H102.657L102.585 26.239ZM128.629 13.225L137.45 35.9634C137.811 36.8792 138.221 37.4937 138.679 37.807C139.137 38.0962 139.558 38.2529 139.944 38.277V39C139.462 38.9518 138.872 38.9277 138.173 38.9277C137.474 38.9036 136.775 38.8915 136.076 38.8915C135.136 38.8915 134.256 38.9036 133.437 38.9277C132.618 38.9277 131.955 38.9518 131.449 39V38.277C132.678 38.2288 133.461 38.0239 133.799 37.6624C134.136 37.2768 134.064 36.4695 133.582 35.2404L126.858 17.2738L127.436 16.8038L121.146 33.1437C120.76 34.1077 120.531 34.9271 120.459 35.6019C120.387 36.2526 120.447 36.7707 120.64 37.1563C120.857 37.5419 121.206 37.8191 121.688 37.9878C122.194 38.1565 122.821 38.2529 123.568 38.277V39C122.893 38.9518 122.182 38.9277 121.435 38.9277C120.712 38.9036 120.037 38.8915 119.411 38.8915C118.808 38.8915 118.29 38.9036 117.856 38.9277C117.447 38.9277 117.061 38.9518 116.7 39V38.277C117.182 38.1565 117.676 37.8793 118.182 37.4455C118.688 36.9876 119.146 36.2164 119.555 35.1319L128.051 13.225C128.147 13.225 128.243 13.225 128.34 13.225C128.436 13.225 128.533 13.225 128.629 13.225ZM133.039 28.5888V29.3118H122.267L122.628 28.5888H133.039Z" fill="black"/>
<path d="M13.5924 12.8996C15.1589 12.8996 16.4242 13.1406 17.3882 13.6226C18.3522 14.0805 19.2559 14.6228 20.0994 15.2494C20.4127 15.4904 20.6537 15.6109 20.8224 15.6109C21.2803 15.6109 21.5816 14.8758 21.7262 13.4057H22.5577C22.5095 14.2974 22.4733 15.3819 22.4492 16.6592C22.4251 17.9366 22.4131 19.6236 22.4131 21.7203H21.5816C21.4129 20.7081 21.208 19.732 20.967 18.7921C20.726 17.8522 20.3284 17.0448 19.7741 16.37C19.0752 15.4783 18.1594 14.7915 17.0267 14.3095C15.894 13.8034 14.7251 13.5503 13.5201 13.5503C12.3151 13.5503 11.2186 13.8516 10.2305 14.4541C9.26647 15.0325 8.43502 15.876 7.73612 16.9846C7.03722 18.0932 6.49496 19.4308 6.10936 20.9973C5.74786 22.5397 5.56711 24.2869 5.56711 26.239C5.56711 30.577 6.26601 33.7582 7.66382 35.7826C9.06162 37.7829 11.2306 38.7831 14.1708 38.7831C15.0384 38.7831 15.7855 38.6626 16.4121 38.4216C17.0628 38.1565 17.5689 37.9034 17.9304 37.6624C18.3883 37.3491 18.6775 37.0599 18.798 36.7948C18.9185 36.5056 18.9788 36.1321 18.9788 35.6742V32.2038C18.9788 31.2157 18.8824 30.4806 18.6896 29.9986C18.4968 29.5166 18.1353 29.1913 17.6051 29.0226C17.099 28.8539 16.3398 28.7575 15.3276 28.7334V28.0104C15.7614 28.0345 16.2675 28.0586 16.8459 28.0827C17.4243 28.0827 18.0268 28.0947 18.6534 28.1188C19.3041 28.1188 19.8946 28.1188 20.4248 28.1188C21.2201 28.1188 21.9311 28.1068 22.5577 28.0827C23.2084 28.0586 23.7506 28.0345 24.1844 28.0104V28.7334C23.6542 28.7575 23.2566 28.8418 22.9915 28.9864C22.7264 29.131 22.5456 29.4202 22.4492 29.854C22.3769 30.2878 22.3408 30.9506 22.3408 31.8423V39H21.6178C21.5936 38.5903 21.4972 38.1444 21.3285 37.6624C21.1839 37.1804 20.955 36.9394 20.6417 36.9394C20.4971 36.9394 20.3525 36.9756 20.2079 37.0479C20.0633 37.1202 19.8102 37.2889 19.4487 37.554C18.6534 38.1565 17.8099 38.6385 16.9182 39C16.0265 39.3374 14.9902 39.5061 13.8093 39.5061C11.327 39.5061 9.19417 39 7.41077 37.9878C5.65146 36.9515 4.30186 35.4693 3.36196 33.5413C2.42206 31.6133 1.9521 29.3118 1.9521 26.6367C1.9521 23.817 2.45821 21.3829 3.47041 19.3344C4.48261 17.2859 5.85631 15.7073 7.59152 14.5987C9.35082 13.466 11.3511 12.8996 13.5924 12.8996ZM33.6241 13.4057V14.1287C32.8047 14.1528 32.1781 14.2492 31.7443 14.4179C31.3346 14.5625 31.0574 14.8517 30.9128 15.2855C30.7682 15.6952 30.6959 16.3459 30.6959 17.2376V35.1681C30.6959 36.0357 30.7682 36.6864 30.9128 37.1202C31.0574 37.554 31.3346 37.8432 31.7443 37.9878C32.1781 38.1083 32.8047 38.1685 33.6241 38.1685H36.2631C37.3958 38.1685 38.3116 38.048 39.0105 37.807C39.7335 37.566 40.2998 37.1925 40.7095 36.6864C41.1433 36.1562 41.4687 35.4573 41.6856 34.5897C41.9025 33.7221 42.0712 32.6617 42.1917 31.4085H43.0231C42.9508 32.1556 42.9147 33.1437 42.9147 34.3728C42.9147 34.8307 42.9267 35.4934 42.9508 36.361C42.999 37.2045 43.0713 38.0842 43.1677 39C41.9386 38.9518 40.5529 38.9277 39.0105 38.9277C37.4681 38.9036 36.0944 38.8915 34.8893 38.8915C34.3591 38.8915 33.6723 38.8915 32.8288 38.8915C32.0094 38.8915 31.1177 38.9036 30.1537 38.9277C29.1897 38.9277 28.2136 38.9397 27.2255 38.9638C26.2374 38.9638 25.2975 38.9759 24.4058 39V38.277C25.2252 38.2288 25.8398 38.1324 26.2495 37.9878C26.6833 37.8432 26.9725 37.554 27.1171 37.1202C27.2617 36.6864 27.334 36.0357 27.334 35.1681V17.2376C27.334 16.3459 27.2617 15.6952 27.1171 15.2855C26.9725 14.8517 26.6833 14.5625 26.2495 14.4179C25.8398 14.2492 25.2252 14.1528 24.4058 14.1287V13.4057C24.9119 13.4298 25.5747 13.4539 26.3941 13.478C27.2135 13.5021 28.0931 13.5142 29.033 13.5142C29.8765 13.5142 30.708 13.5021 31.5274 13.478C32.3709 13.4539 33.0698 13.4298 33.6241 13.4057ZM53.9365 12.8996C56.226 12.8996 58.2263 13.4178 59.9374 14.4541C61.6726 15.4904 63.0102 16.9846 63.9501 18.9367C64.9141 20.8647 65.3961 23.2145 65.3961 25.986C65.3961 28.6852 64.902 31.047 63.9139 33.0714C62.9499 35.0958 61.6003 36.6743 59.8651 37.807C58.1299 38.9397 56.1416 39.5061 53.9003 39.5061C51.6108 39.5061 49.5985 38.9879 47.8633 37.9516C46.1522 36.9153 44.8146 35.4211 43.8506 33.469C42.9107 31.5169 42.4408 29.1672 42.4408 26.4198C42.4408 23.7206 42.9348 21.3588 43.9229 19.3344C44.911 17.31 46.2606 15.7314 47.9717 14.5987C49.7069 13.466 51.6952 12.8996 53.9365 12.8996ZM53.7919 13.5503C52.2254 13.5503 50.8637 14.0926 49.7069 15.1771C48.5501 16.2616 47.6464 17.7558 46.9957 19.6597C46.3691 21.5636 46.0558 23.7688 46.0558 26.2752C46.0558 28.8298 46.4052 31.059 47.1041 32.9629C47.8271 34.8427 48.7911 36.3008 49.9961 37.3371C51.2252 38.3493 52.5748 38.8554 54.0449 38.8554C55.6114 38.8554 56.9731 38.3131 58.1299 37.2286C59.2867 36.1441 60.1784 34.6499 60.805 32.746C61.4557 30.818 61.7811 28.6129 61.7811 26.1306C61.7811 23.5519 61.4196 21.3226 60.6966 19.4428C59.9977 17.563 59.0457 16.117 57.8407 15.1048C56.6357 14.0685 55.2861 13.5503 53.7919 13.5503ZM97.1889 13.4057V14.1287C96.731 14.2251 96.2249 14.5023 95.6706 14.9602C95.1163 15.394 94.6705 16.1652 94.3331 17.2738L87.5007 39.1808C87.4525 39.1808 87.4043 39.1808 87.3561 39.1808C87.3079 39.1808 87.2597 39.1808 87.2115 39.1808C87.1633 39.1808 87.1151 39.1808 87.0669 39.1808C87.0187 39.1808 86.9705 39.1808 86.9223 39.1808L79.2585 16.4423C78.9452 15.5024 78.5957 14.8879 78.2101 14.5987C77.8245 14.3095 77.463 14.1528 77.1256 14.1287V13.4057C77.5594 13.4298 78.1017 13.4539 78.7524 13.478C79.4031 13.5021 80.0297 13.5142 80.6322 13.5142C81.5721 13.5142 82.4518 13.5021 83.2712 13.478C84.0906 13.4539 84.7533 13.4298 85.2594 13.4057V14.1287C84.5364 14.1528 83.958 14.2251 83.5242 14.3456C83.1145 14.4661 82.8735 14.7312 82.8012 15.1409C82.753 15.5506 82.8735 16.2254 83.1627 17.1653L88.5491 33.8305L88.043 34.2643L92.8148 19.2621C93.2486 17.9366 93.4414 16.9123 93.3932 16.1893C93.3691 15.4422 93.104 14.924 92.5979 14.6348C92.0918 14.3215 91.3326 14.1528 90.3204 14.1287V13.4057C91.0193 13.4298 91.7303 13.4539 92.4533 13.478C93.1763 13.5021 93.8511 13.5142 94.4777 13.5142C95.1043 13.5142 95.6224 13.5021 96.0321 13.478C96.4418 13.4539 96.8274 13.4298 97.1889 13.4057ZM71.92 13.4057V14.1287C71.2934 14.1769 70.8355 14.2974 70.5463 14.4902C70.2812 14.683 70.1487 14.9963 70.1487 15.4301C70.1728 15.8398 70.3053 16.4182 70.5463 17.1653L76.1496 34.2643L75.2458 35.1681L80.3068 19.009L80.8491 19.8766L74.8843 39.1808C74.8361 39.1808 74.7879 39.1808 74.7397 39.1808C74.6915 39.1808 74.6433 39.1808 74.5951 39.1808C74.5469 39.1808 74.4987 39.1808 74.4505 39.1808C74.4023 39.1808 74.3541 39.1808 74.3059 39.1808L66.6421 16.4423C66.3288 15.5024 65.9312 14.8879 65.4492 14.5987C64.9672 14.3095 64.5334 14.1528 64.1478 14.1287V13.4057C64.6298 13.4298 65.2202 13.4539 65.9191 13.478C66.6421 13.5021 67.341 13.5142 68.0158 13.5142C68.8111 13.5142 69.5462 13.5021 70.221 13.478C70.9199 13.4539 71.4862 13.4298 71.92 13.4057ZM96.8373 13.4057C97.3434 13.4298 98.0062 13.4539 98.8256 13.478C99.645 13.5021 100.452 13.5142 101.248 13.5142C102.38 13.5142 103.465 13.5021 104.501 13.478C105.537 13.4539 106.272 13.4419 106.706 13.4419C108.658 13.4419 110.273 13.719 111.55 14.2733C112.852 14.8276 113.816 15.5868 114.442 16.5508C115.093 17.4907 115.418 18.5511 115.418 19.732C115.418 20.455 115.274 21.2262 114.985 22.0456C114.695 22.865 114.189 23.6362 113.466 24.3592C112.767 25.0822 111.803 25.6847 110.574 26.1667C109.345 26.6246 107.791 26.8536 105.911 26.8536H102.441V26.1306H105.549C107.261 26.1306 108.562 25.8655 109.454 25.3353C110.369 24.781 110.984 24.058 111.297 23.1663C111.635 22.2505 111.803 21.2383 111.803 20.1297C111.803 18.2258 111.346 16.7556 110.43 15.7193C109.538 14.6589 107.996 14.1287 105.803 14.1287C104.694 14.1287 103.971 14.3336 103.634 14.7433C103.296 15.153 103.127 15.9844 103.127 17.2376V35.1681C103.127 36.0357 103.2 36.6864 103.344 37.1202C103.489 37.554 103.766 37.8432 104.176 37.9878C104.61 38.1324 105.236 38.2288 106.056 38.277V39C105.501 38.9518 104.802 38.9277 103.959 38.9277C103.139 38.9036 102.308 38.8915 101.465 38.8915C100.525 38.8915 99.645 38.9036 98.8256 38.9277C98.0062 38.9277 97.3434 38.9518 96.8373 39V38.277C97.6567 38.2288 98.2713 38.1324 98.681 37.9878C99.1148 37.8432 99.404 37.554 99.5486 37.1202C99.6932 36.6864 99.7655 36.0357 99.7655 35.1681V17.2376C99.7655 16.3459 99.6932 15.6952 99.5486 15.2855C99.404 14.8517 99.1148 14.5625 98.681 14.4179C98.2713 14.2492 97.6567 14.1528 96.8373 14.1287V13.4057ZM102.585 26.239C103.887 26.2872 104.911 26.3475 105.658 26.4198C106.405 26.468 107.008 26.5162 107.465 26.5644C107.947 26.6126 108.405 26.6728 108.839 26.7451C110.454 27.0102 111.611 27.5043 112.31 28.2273C113.033 28.9262 113.563 30.0227 113.9 31.5169L114.804 35.2042C115.045 36.2646 115.286 37.0358 115.527 37.5178C115.792 37.9757 116.19 38.1926 116.72 38.1685C117.13 38.1444 117.467 38.0119 117.732 37.7709C118.021 37.5299 118.323 37.2045 118.636 36.7948L119.178 37.1925C118.672 37.9396 118.142 38.518 117.587 38.9277C117.057 39.3133 116.298 39.5061 115.31 39.5061C114.418 39.5061 113.635 39.241 112.96 38.7108C112.285 38.1806 111.779 37.1443 111.442 35.6019L110.647 31.9869C110.43 30.9506 110.177 30.0589 109.887 29.3118C109.622 28.5406 109.237 27.9381 108.731 27.5043C108.249 27.0705 107.526 26.8536 106.562 26.8536H102.657L102.585 26.239ZM128.629 13.225L137.45 35.9634C137.811 36.8792 138.221 37.4937 138.679 37.807C139.137 38.0962 139.558 38.2529 139.944 38.277V39C139.462 38.9518 138.872 38.9277 138.173 38.9277C137.474 38.9036 136.775 38.8915 136.076 38.8915C135.136 38.8915 134.256 38.9036 133.437 38.9277C132.618 38.9277 131.955 38.9518 131.449 39V38.277C132.678 38.2288 133.461 38.0239 133.799 37.6624C134.136 37.2768 134.064 36.4695 133.582 35.2404L126.858 17.2738L127.436 16.8038L121.146 33.1437C120.76 34.1077 120.531 34.9271 120.459 35.6019C120.387 36.2526 120.447 36.7707 120.64 37.1563C120.857 37.5419 121.206 37.8191 121.688 37.9878C122.194 38.1565 122.821 38.2529 123.568 38.277V39C122.893 38.9518 122.182 38.9277 121.435 38.9277C120.712 38.9036 120.037 38.8915 119.411 38.8915C118.808 38.8915 118.29 38.9036 117.856 38.9277C117.447 38.9277 117.061 38.9518 116.7 39V38.277C117.182 38.1565 117.676 37.8793 118.182 37.4455C118.688 36.9876 119.146 36.2164 119.555 35.1319L128.051 13.225C128.147 13.225 128.243 13.225 128.34 13.225C128.436 13.225 128.533 13.225 128.629 13.225ZM133.039 28.5888V29.3118H122.267L122.628 28.5888H133.039Z" fill="black"/>
</svg>
